<svg xmlns="http://www.w3.org/2000/svg" version="1.1" xmlns:xlink="http://www.w3.org/1999/xlink" width="1000" height="1000"><g clip-path="url(#SvgjsClipPath1248)"><rect width="1000" height="1000" fill="#000000"></rect><g transform="matrix(21.875,0,0,21.875,150,150)"><svg xmlns="http://www.w3.org/2000/svg" version="1.1" xmlns:xlink="http://www.w3.org/1999/xlink" width="32" height="32"><svg width="32" height="32" viewBox="0 0 32 32" fill="none" xmlns="http://www.w3.org/2000/svg">
  <rect width="32" height="32" rx="6" fill="#000000"></rect>
  <g transform="translate(4, 4) scale(1)">
    <path d="M11.572 0c-.176 0-.31.001-.358.007a19.76 19.76 0 0 1-.364.033C7.443.346 4.25 2.185 2.228 5.012a11.875 11.875 0 0 0-2.119 5.243c-.096.659-.108.854-.108 1.747s.012 1.089.108 1.748c.652 4.506 3.86 8.292 8.209 9.695.779.25 1.6.422 2.534.525.363.04 1.935.04 2.299 0 1.611-.178 2.977-.577 4.323-1.264.207-.106.247-.134.219-.158-.02-.013-.9-1.193-1.955-2.62l-1.919-2.592-2.404-3.558a338.739 338.739 0 0 0-2.422-3.556c-.009-.002-.018 1.579-.023 3.51-.007 3.38-.01 3.515-.052 3.595a.426.426 0 0 1-.206.214c-.075.037-.14.044-.495.044H7.81l-.108-.068a.438.438 0 0 1-.157-.171l-.05-.106.006-4.703.007-4.705.072-.092a.645.645 0 0 1 .174-.143c.096-.047.134-.051.54-.051.478 0 .558.018.682.154.035.038 1.337 1.999 2.895 4.361a10760.433 10760.433 0 0 0 4.735 7.17l1.9 2.879.096-.063a12.317 12.317 0 0 0 2.466-2.163 11.944 11.944 0 0 0 2.824-6.134c.096-.66.108-.854.108-1.748 0-.893-.012-1.088-.108-1.747C20.756 4.249 17.563 2.185 14.458.346a19.76 19.76 0 0 0-.364-.033C13.666.001 13.532 0 13.356 0h-1.784zm4.368 7.217c.076.044.144.101.185.176.067.121.068.127.068 2.345 0 1.242-.009 2.243-.02 2.243-.014 0-.386-.253-.827-.563l-.827-.563-.002-1.68c0-.925.007-1.68.013-1.68.007-.001.184.082.41.183z" fill="white"></path>
  </g>
</svg></svg></g></g><defs><clipPath id="SvgjsClipPath1248"><rect width="1000" height="1000" x="0" y="0" rx="500" ry="500"></rect></clipPath></defs></svg>